<svg xmlns="http://www.w3.org/2000/svg" viewBox="0 0 900 250">
  <defs>
    <linearGradient id="bg" x1="0%" y1="0%" x2="100%" y2="100%">
      <stop offset="0%" style="stop-color:#0f1923"/>
      <stop offset="100%" style="stop-color:#162536"/>
    </linearGradient>
  </defs>
  <rect width="900" height="250" rx="16" fill="url(#bg)"/>
  <!-- Snowflake icon -->
  <g transform="translate(80,125)" fill="#29b5e8" opacity="0.9">
    <line x1="0" y1="-40" x2="0" y2="40" stroke="#29b5e8" stroke-width="4"/>
    <line x1="-35" y1="-20" x2="35" y2="20" stroke="#29b5e8" stroke-width="4"/>
    <line x1="-35" y1="20" x2="35" y2="-20" stroke="#29b5e8" stroke-width="4"/>
    <circle cx="0" cy="-40" r="5" fill="#29b5e8"/>
    <circle cx="0" cy="40" r="5" fill="#29b5e8"/>
    <circle cx="-35" cy="-20" r="5" fill="#29b5e8"/>
    <circle cx="35" cy="20" r="5" fill="#29b5e8"/>
    <circle cx="-35" cy="20" r="5" fill="#29b5e8"/>
    <circle cx="35" cy="-20" r="5" fill="#29b5e8"/>
    <circle cx="0" cy="0" r="7" fill="#29b5e8"/>
    <!-- Branch tips -->
    <line x1="-12" y1="-48" x2="0" y2="-40" stroke="#29b5e8" stroke-width="3"/>
    <line x1="12" y1="-48" x2="0" y2="-40" stroke="#29b5e8" stroke-width="3"/>
    <line x1="-12" y1="48" x2="0" y2="40" stroke="#29b5e8" stroke-width="3"/>
    <line x1="12" y1="48" x2="0" y2="40" stroke="#29b5e8" stroke-width="3"/>
  </g>
  <!-- Shield icon -->
  <g transform="translate(134,95)" fill="none" stroke="#2ecc71" stroke-width="2.5">
    <path d="M0,2 L-14,-6 L-14,-18 C-14,-18 0,-22 0,-22 C0,-22 14,-18 14,-18 L14,-6 Z" fill="#2ecc71" opacity="0.15"/>
    <path d="M0,2 L-14,-6 L-14,-18 C-14,-18 0,-22 0,-22 C0,-22 14,-18 14,-18 L14,-6 Z"/>
    <polyline points="-5,-8 -2,-5 6,-12" stroke="#2ecc71" stroke-width="2.5" fill="none"/>
  </g>
  <!-- Text -->
  <text x="170" y="110" font-family="Segoe UI,system-ui,sans-serif" font-size="36" font-weight="700" fill="#29b5e8">
    Snowflake SSPM Scanner
  </text>
  <text x="170" y="142" font-family="Segoe UI,system-ui,sans-serif" font-size="16" fill="#7f8c9b">
    SaaS Security Posture Management for Snowflake Data Platform
  </text>
  <text x="170" y="172" font-family="Segoe UI,system-ui,sans-serif" font-size="13" fill="#4a5f73">
    CIS Snowflake Foundations Benchmark v1.0.0 &#x2022; 39 Security Controls &#x2022; 4 Domains
  </text>
  <!-- Badges -->
  <rect x="170" y="190" width="90" height="22" rx="4" fill="#29b5e8" opacity="0.15"/>
  <text x="215" y="205" font-family="monospace" font-size="11" fill="#29b5e8" text-anchor="middle">Python 3.10+</text>
  <rect x="270" y="190" width="72" height="22" rx="4" fill="#2ecc71" opacity="0.15"/>
  <text x="306" y="205" font-family="monospace" font-size="11" fill="#2ecc71" text-anchor="middle">Read-Only</text>
  <rect x="352" y="190" width="55" height="22" rx="4" fill="#f39c12" opacity="0.15"/>
  <text x="379" y="205" font-family="monospace" font-size="11" fill="#f39c12" text-anchor="middle">v1.0.0</text>
</svg>
